PathFileType  4	(X/Y/Z) C:\Users\antoi\Documents\MyRepositories\mobilecap\ResultsAnalysis
DataRate	CameraRate	NumFrames	NumMarkers	Units	OrigDataRate	OrigDataStartFrame	OrigNumFrames
100.0	100.0	4	51	mm	100.0	54	142
Frame#	Time	r_knee			r_shank_antsup			r_ankle			r_calc			r_5meta			r_toe			L_knee			L_shank_antsup			L_ankle			L_calc			L_5meta			L_toe			r_sh2			r_sh3			r_sh4			L_sh2			L_sh3			r_thigh1			r_thigh2			r_thigh3			r_thigh4			r_thigh5			L_thigh1			L_thigh2			L_thigh3			L_thigh4			r.ASIS			r.PSIS			L.ASIS			L.PSIS			C7			R_Shoulder			L_Shoulder			R_Sternum			L_Sternum			R_humerus			R_elbow_med			R_elbow_lat			R_forearm			R_wrist_radius			R_wrist_ulna			L_humerus			L_elbow_med			L_elbow_lat			L_forearm			L_wrist_radius			L_wrist_ulna			R_HJC			L_HJC			R_HJC_reg			L_HJC_reg			
		X1	Y1	Z1	X2	Y2	Z2	X3	Y3	Z3	X4	Y4	Z4	X5	Y5	Z5	X6	Y6	Z6	X7	Y7	Z7	X8	Y8	Z8	X9	Y9	Z9	X10	Y10	Z10	X11	Y11	Z11	X12	Y12	Z12	X13	Y13	Z13	X14	Y14	Z14	X15	Y15	Z15	X16	Y16	Z16	X17	Y17	Z17	X18	Y18	Z18	X19	Y19	Z19	X20	Y20	Z20	X21	Y21	Z21	X22	Y22	Z22	X23	Y23	Z23	X24	Y24	Z24	X25	Y25	Z25	X26	Y26	Z26	X27	Y27	Z27	X28	Y28	Z28	X29	Y29	Z29	X30	Y30	Z30	X31	Y31	Z31	X32	Y32	Z32	X33	Y33	Z33	X34	Y34	Z34	X35	Y35	Z35	X36	Y36	Z36	X37	Y37	Z37	X38	Y38	Z38	X39	Y39	Z39	X40	Y40	Z40	X41	Y41	Z41	X42	Y42	Z42	X43	Y43	Z43	X44	Y44	Z44	X45	Y45	Z45	X46	Y46	Z46	X47	Y47	Z47	X48	Y48	Z48	X49	Y49	Z49	X50	Y50	Z50	X51	Y51	Z51	

54	0.53000000	362.39801	458.34746	-75.70730	339.51154	387.03048	-55.12595	187.01112	122.45860	-111.64437	112.96693	104.29798	-154.89701	267.37799	43.44651	-81.69315	317.96270	53.93745	-133.97961	618.06750	464.07129	-380.05887	667.50124	420.88531	-388.54574	753.12179	119.87162	-390.26072	709.61148	54.68139	-343.93916	857.41476	113.24368	-421.04196	893.39902	157.77660	-369.42009	287.61957	286.53225	-56.80403	274.45391	418.04215	-77.84533	216.31272	319.33193	-84.01435	581.59855	396.26475	-399.57772	629.61535	284.72148	-411.22791	504.08026	754.42031	-70.77371	488.45971	642.34271	-60.65936	429.38171	631.19652	-30.78011	398.99637	770.95720	-27.55672	377.59954	655.93531	-38.36402	553.95732	743.50908	-393.68068	612.06626	617.21684	-395.70751	449.63447	698.16846	-399.14042	516.26825	569.71537	-394.46271	517.68476	903.95977	-90.62299	340.37806	921.72507	-180.20712	537.20430	886.78457	-349.82856	344.33159	902.08820	-284.66220	428.32635	1378.81777	-264.12790	508.56492	1335.13300	-116.90122	456.47841	1301.35778	-428.77400	538.71613	1287.61623	-253.54991	532.68178	1283.33450	-296.81612	564.90220	1114.37200	-18.93184	517.59253	999.93306	-32.36523	557.41041	1032.97766	18.79407	634.15231	936.03441	24.85392	680.79772	826.42986	33.40496	648.52059	815.86135	61.68193	475.00196	1166.44267	-471.66132	415.00404	959.21568	-414.48536	421.40884	964.25780	-476.33275	478.57389	870.77447	-496.34104	509.22809	749.28782	-483.91661	474.74847	735.53570	-489.08897	453.98826	828.25486	-118.72964	470.84876	815.11992	-317.87378	453.87401	836.05243	-116.89378	460.26038	804.30942	-285.74992	
55	0.54000000	370.37912	457.73200	-76.45048	346.39359	386.80380	-55.77260	189.04296	124.78741	-111.77250	114.86028	107.83293	-154.92570	267.94243	43.78112	-81.74155	318.61748	53.63616	-133.97130	628.79401	461.51072	-381.32239	678.75164	419.59612	-389.51703	770.37021	120.07719	-393.71044	727.81318	53.00487	-348.72003	874.99760	116.43049	-422.95525	909.29036	161.63557	-370.63255	292.66561	287.21720	-57.26024	281.88130	418.87145	-78.64184	221.97529	321.21191	-84.54677	593.56906	393.46144	-402.26648	644.13087	283.13953	-414.71560	515.27422	752.23225	-71.71927	498.48807	640.41795	-61.42402	439.05368	629.97962	-31.91317	410.21991	769.98889	-29.16683	387.54340	655.37695	-39.75474	568.20325	741.58113	-393.10139	624.92792	614.67651	-394.89458	463.62471	697.48630	-401.69193	528.71202	568.25994	-396.71914	530.10012	902.16547	-91.44159	353.54584	920.25311	-182.46954	551.11035	884.99048	-350.44519	357.95008	900.58149	-286.97724	441.11816	1377.00830	-268.70271	521.10865	1334.76068	-120.96392	469.54396	1297.95290	-432.55371	551.70843	1286.04215	-257.09877	545.81969	1281.42125	-300.34959	577.21355	1114.45342	-22.00928	529.35627	1000.12108	-34.69521	569.58118	1033.20025	16.16123	646.21549	936.11843	22.16525	692.77170	826.49598	30.83508	660.64119	816.02578	59.31857	487.73953	1162.77697	-474.62214	427.82554	955.90186	-416.06084	433.91141	960.62441	-477.99533	490.78602	866.98033	-497.91170	521.30249	745.40935	-485.19719	486.88560	731.75273	-489.76178	466.37288	826.58334	-120.09922	484.60896	813.40838	-319.11891	466.40331	834.48764	-117.99030	473.51146	802.72048	-286.75790	
56	0.55000000	378.92664	457.03271	-77.25110	353.78199	386.52862	-56.42122	191.33758	127.31671	-111.76330	116.99500	111.69657	-154.85591	268.58325	44.12789	-81.76900	319.33865	53.34911	-133.92667	640.08224	459.17145	-382.85204	690.24826	417.93241	-390.72727	785.27492	119.24972	-396.64676	743.05965	51.09111	-352.82915	890.07302	117.62128	-424.31295	923.02005	163.30091	-371.41438	298.13388	287.94292	-57.67906	289.86127	419.72537	-79.38210	228.09481	323.17314	-85.02504	605.63283	391.06426	-405.21223	657.71410	281.46928	-418.19885	526.88008	749.99914	-72.88147	509.01121	638.43832	-62.39793	449.26660	628.67429	-33.16438	421.88685	768.90518	-30.91965	397.96808	654.78483	-41.19722	582.89666	740.00863	-392.32394	638.45942	612.61524	-393.93773	478.30977	697.05445	-404.49927	541.98685	567.13514	-399.26378	542.81488	900.32641	-92.40092	366.99904	918.74700	-184.81375	565.26006	883.36687	-351.18156	371.75952	899.12758	-289.38029	454.05585	1375.13582	-273.53103	533.57542	1334.48836	-125.15966	482.96605	1294.47159	-436.47510	564.85988	1284.51508	-260.74935	559.16594	1279.52136	-303.97770	589.27702	1114.59789	-25.11924	540.79764	1000.41762	-37.08767	581.42504	1033.49843	13.48321	657.94529	936.25611	19.40652	704.35718	826.59553	28.17970	672.38715	816.23118	56.88063	500.83316	1159.03294	-477.72448	440.90952	952.56806	-417.78297	446.73798	956.97603	-479.81193	503.26925	863.12689	-499.59073	533.54071	741.40773	-486.61983	499.21451	727.92777	-490.55084	479.06659	824.87004	-121.64622	498.63063	811.81782	-320.54827	479.30422	832.90005	-119.21010	486.98132	801.24954	-287.89839	
57	0.56000000	388.11127	456.22290	-78.09469	361.73098	386.18334	-57.05504	193.92779	130.06506	-111.61572	119.42206	115.92860	-154.70337	269.29574	44.49174	-81.77673	320.13771	53.06777	-133.84706	651.96197	457.04500	-384.52316	702.01534	415.84219	-392.12565	797.84060	117.31529	-399.08888	755.30634	49.06213	-356.24379	902.77737	116.51853	-425.19022	934.75552	162.50576	-371.86363	304.07987	288.70133	-58.05605	298.45909	420.60562	-80.04336	234.74495	325.23286	-85.44220	617.77596	389.01935	-408.23921	670.30076	279.59461	-421.52517	538.94630	747.72221	-74.26303	520.09397	636.39579	-63.57190	460.09830	627.25964	-34.53372	434.05084	767.67590	-32.79297	408.96865	654.08799	-42.69265	598.00809	738.74238	-391.44005	652.54747	610.93859	-392.91445	493.61071	696.82180	-407.45775	555.96135	566.31192	-401.98670	555.85696	898.42939	-93.52618	380.74926	917.15981	-187.20941	579.63741	881.89169	-352.10290	385.75445	897.69345	-291.83326	467.14623	1373.19140	-278.61043	545.98925	1334.29104	-129.50165	496.73608	1290.91340	-440.54628	578.17475	1283.02202	-264.51753	572.72507	1277.62222	-307.71698	601.07962	1114.79208	-28.24338	551.95063	1000.79002	-39.53730	592.93677	1033.86981	10.78222	669.32705	936.44366	16.59809	715.55017	826.72618	25.46127	683.75819	816.47873	54.39385	514.30456	1155.20299	-480.96770	454.27037	949.21028	-419.65253	459.90035	953.30909	-481.78457	516.04255	859.21058	-501.37214	545.95672	737.30653	-488.13732	511.72859	724.06078	-491.45890	492.11672	823.08875	-123.37978	512.90337	810.32397	-322.17814	492.61838	831.23347	-120.57411	500.68565	799.85542	-289.22098	
